<?xml version="1.0" standalone="no"?>
<!DOCTYPE svg PUBLIC "-//W3C//DTD SVG 20010904//EN"
 "http://www.w3.org/TR/2001/REC-SVG-20010904/DTD/svg10.dtd">
<svg version="1.0" xmlns="http://www.w3.org/2000/svg"
 width="1024.000000pt" height="1024.000000pt" viewBox="0 0 1024.000000 1024.000000"
 preserveAspectRatio="xMidYMid meet">
<metadata>
Created by potrace 1.14, written by Peter Selinger 2001-2017
</metadata>
<g transform="translate(0.000000,1024.000000) scale(0.100000,-0.100000)"
fill="#000000" stroke="none">
<path d="M0 5120 l0 -5120 5120 0 5120 0 0 5120 0 5120 -2532 -2 -2533 -3 -3
-34 c-3 -28 -1 -33 13 -28 9 4 18 1 21 -8 6 -14 41 -31 57 -27 4 1 7 -2 7 -7
0 -5 9 -7 20 -4 11 3 36 2 56 -2 29 -5 35 -10 31 -26 -3 -10 -1 -19 4 -19 5 0
9 -4 9 -9 0 -6 -9 -8 -20 -6 -14 3 -20 -2 -20 -15 0 -10 -5 -22 -11 -25 -6 -4
-8 -13 -5 -21 3 -8 1 -14 -3 -14 -5 0 -8 -19 -8 -42 2 -30 -2 -42 -10 -40 -7
1 -19 3 -25 5 -8 1 -14 -11 -16 -30 -2 -22 -9 -33 -19 -33 -12 0 -13 -3 -4
-13 7 -10 7 -17 0 -24 -7 -7 -8 -13 0 -17 12 -8 3 -36 -11 -36 -26 0 -39 -30
-33 -74 4 -26 3 -46 -3 -50 -14 -8 -3 -46 13 -46 7 0 18 7 25 15 14 17 50 20
50 5 0 -5 -4 -10 -10 -10 -5 0 -7 -7 -3 -17 5 -14 8 -13 14 5 5 12 15 22 23
22 8 0 16 5 18 11 2 5 11 11 19 12 9 2 28 16 42 32 22 25 28 27 36 15 5 -8 7
-18 5 -22 -3 -4 5 -8 18 -7 13 0 17 3 11 6 -15 6 -16 22 -4 42 8 13 12 13 27
0 10 -8 15 -9 11 -2 -4 6 -3 14 1 17 5 3 14 -6 20 -19 9 -19 9 -25 0 -25 -25
0 3 -13 34 -16 37 -3 91 -28 81 -37 -3 -4 0 -13 7 -22 7 -8 9 -15 5 -15 -4 0
-14 8 -21 18 -12 16 -13 16 -20 -2 -5 -12 -3 -21 4 -24 7 -2 9 -9 5 -15 -4 -6
0 -8 9 -4 21 8 38 -12 38 -45 0 -25 2 -27 25 -18 16 6 25 6 25 0 0 -17 20 -11
45 14 13 13 27 21 30 18 3 -4 3 1 -1 11 -4 12 -1 17 10 17 9 0 15 -3 15 -7 -4
-22 3 -33 19 -33 15 0 15 -2 2 -11 -12 -8 -11 -9 6 -4 16 4 26 -1 38 -20 9
-14 14 -30 11 -35 -3 -6 0 -10 7 -10 8 0 15 -13 16 -31 1 -17 8 -37 15 -44 6
-7 21 -25 32 -39 36 -47 46 -56 66 -56 10 0 19 -5 19 -10 0 -7 6 -7 19 0 24
12 34 13 27 2 -9 -15 34 -43 56 -37 23 8 69 -30 62 -50 -3 -7 8 -23 24 -37 30
-25 57 -78 32 -63 -9 6 -11 4 -4 -6 10 -16 15 -44 7 -35 -3 3 -14 -4 -24 -15
-23 -26 -7 -59 24 -51 20 5 42 -19 42 -48 0 -8 8 -15 19 -15 14 0 19 -8 21
-32 2 -26 -2 -32 -22 -38 -16 -4 -23 -11 -19 -20 3 -8 -3 -17 -14 -20 -11 -3
-19 -9 -19 -13 3 -18 -3 -22 -19 -13 -11 6 -24 6 -33 0 -11 -7 -11 -9 0 -9 11
0 11 -3 1 -15 -11 -13 -10 -14 4 -9 12 5 16 0 16 -16 0 -18 -3 -20 -14 -11
-11 10 -13 3 -12 -36 2 -53 -14 -78 -44 -70 -11 3 -20 1 -20 -4 0 -5 14 -9 30
-9 25 0 30 -4 30 -24 0 -20 -6 -25 -31 -28 -19 -2 -38 -12 -47 -26 -13 -20
-13 -22 1 -16 9 3 24 -2 34 -11 16 -16 14 -17 -19 -12 -33 4 -34 3 -30 -22 l6
-26 6 25 c6 21 8 22 14 8 4 -9 3 -25 -3 -36 -9 -17 -6 -26 15 -51 14 -17 21
-31 15 -31 -6 0 -16 9 -23 19 -10 16 -15 18 -27 8 -12 -10 -14 -9 -9 4 5 13 0
13 -33 -4 -34 -17 -53 -32 -31 -25 4 2 18 -5 31 -14 22 -15 22 -18 7 -33 -14
-15 -14 -18 -1 -31 20 -21 19 -27 -5 -19 -13 4 -28 -2 -45 -19 -30 -31 -36
-32 -29 -8 5 14 3 14 -10 -2 -15 -19 -22 -12 -17 17 0 4 -4 7 -9 7 -12 0 -12
-4 0 -58 8 -34 7 -46 -4 -58 -16 -15 -41 -20 -32 -5 4 5 -2 8 -11 6 -10 -2
-21 -4 -25 -4 -5 -1 -7 -7 -5 -13 1 -7 -3 -12 -9 -11 -7 1 -10 -6 -7 -17 3
-11 0 -20 -6 -20 -6 0 -11 -5 -11 -11 0 -5 4 -8 9 -4 5 3 13 -5 17 -17 6 -20
8 -20 19 -5 11 15 14 15 33 -6 24 -26 28 -37 11 -37 -5 0 -8 4 -4 9 3 5 1 12
-5 16 -5 3 -10 -1 -10 -11 0 -11 -6 -15 -20 -11 -11 3 -20 1 -20 -5 0 -6 -7
-7 -16 -4 -12 5 -15 2 -11 -13 3 -14 0 -17 -14 -14 -11 3 -19 0 -19 -6 0 -5
-6 -8 -14 -5 -8 3 -12 12 -9 20 6 17 -5 18 -20 1 -16 -16 -21 -40 -7 -32 7 4
9 -2 4 -20 -4 -17 -1 -32 10 -44 24 -26 4 -35 -23 -10 -12 11 -26 17 -31 14
-6 -3 -10 1 -10 9 0 9 -4 16 -10 16 -5 0 -10 -4 -10 -10 0 -5 -12 -10 -27 -11
l-28 -1 28 -10 c15 -5 27 -16 27 -24 0 -8 4 -14 8 -14 8 0 42 -68 42 -83 0 -4
-9 -2 -20 5 -11 7 -20 18 -20 25 0 16 -20 16 -42 0 -11 -9 -14 -18 -7 -28 14
-22 12 -24 -33 -22 -24 0 -46 -4 -50 -10 -8 -13 1 -39 12 -32 9 6 21 -31 12
-39 -3 -3 -12 3 -19 14 -8 11 -19 18 -24 15 -5 -4 -9 1 -9 9 0 8 5 18 11 22 8
4 7 9 -2 15 -23 14 -39 10 -32 -7 3 -9 0 -20 -8 -25 -9 -6 -10 -12 -4 -16 6
-5 11 -13 12 -18 1 -6 3 -22 6 -35 2 -14 2 -19 0 -12 -3 6 -9 12 -14 12 -6 0
-7 5 -4 10 7 12 -20 42 -29 33 -3 -4 -6 -1 -6 5 0 7 -7 12 -16 12 -14 0 -14
-3 -4 -15 15 -18 -1 -20 -18 -3 -9 9 -12 9 -12 0 0 -7 5 -12 10 -12 6 0 10 -8
10 -18 0 -15 -6 -17 -34 -14 -37 4 -59 -15 -34 -29 27 -15 19 -61 -16 -101
-23 -25 -36 -34 -43 -27 -7 7 -17 1 -32 -19 -15 -22 -26 -28 -44 -25 -17 4
-26 -2 -35 -21 -6 -14 -16 -26 -21 -26 -6 0 -8 -7 -4 -16 3 -8 12 -13 19 -10
8 3 14 -1 14 -10 0 -12 -6 -15 -24 -10 -21 5 -23 3 -18 -16 3 -14 2 -19 -6
-14 -7 4 -12 2 -12 -3 0 -6 -7 -11 -15 -11 -12 0 -15 -19 -16 -107 -1 -60 -3
-135 -5 -168 -1 -33 -4 -284 -7 -558 -2 -274 -8 -501 -11 -505 -4 -3 -17 7
-30 23 -15 18 -28 26 -39 22 -8 -3 -21 1 -28 9 -12 14 -14 14 -24 0 -11 -14
-15 -14 -48 3 -36 18 -37 18 -37 0 0 -13 -8 -19 -22 -20 -13 -1 -27 -2 -33 -4
-5 -1 -18 -3 -28 -3 -14 -2 -15 -5 -6 -20 29 -47 -31 -148 -82 -140 -16 2 -25
11 -27 26 -2 16 -8 22 -18 18 -8 -3 -14 1 -14 9 0 8 -7 15 -15 15 -8 0 -15 9
-15 20 0 13 -9 22 -25 26 -14 3 -25 10 -25 14 0 4 -9 10 -20 13 -12 3 -20 0
-20 -8 0 -7 9 -15 19 -18 15 -3 18 -11 14 -27 -5 -20 -10 -22 -49 -16 -23 3
-65 19 -92 36 -27 16 -66 36 -88 44 -21 8 -63 24 -92 35 -36 13 -69 18 -105
16 -35 -3 -46 -1 -32 5 13 5 -14 8 -77 7 -54 0 -98 -4 -98 -9 0 -4 -5 -8 -11
-8 -5 0 -7 5 -3 11 4 7 -11 10 -47 7 -45 -2 -55 0 -63 17 -45 84 -95 120 -193
136 -91 15 -119 8 -140 -36 -16 -33 -16 -36 8 -82 30 -59 119 -134 148 -126
12 3 21 14 21 24 0 25 5 24 48 -11 20 -16 53 -31 72 -34 59 -8 174 -20 197
-20 13 -1 23 -4 23 -8 0 -5 0 -12 0 -18 0 -5 -10 -9 -22 -9 -13 1 -31 -2 -40
-6 -10 -4 -18 -3 -18 3 0 14 -61 22 -82 10 -10 -5 -18 -16 -18 -25 0 -25 29
-53 48 -45 15 5 16 4 2 -13 -14 -17 -13 -18 13 -11 22 5 27 3 27 -13 0 -10 7
-24 15 -31 10 -8 13 -21 8 -38 -4 -19 0 -29 18 -43 13 -10 18 -19 11 -19 -20
0 -151 122 -230 215 l-43 50 7 -43 c6 -35 3 -49 -15 -72 -11 -16 -21 -34 -21
-40 0 -5 -4 -10 -10 -10 -5 0 -10 -9 -10 -20 0 -24 -22 -25 -65 -5 l-30 15 45
-6 45 -6 -24 21 c-13 11 -32 23 -42 26 -11 4 -19 11 -19 16 0 5 -5 9 -11 9 -5
0 -8 -4 -4 -9 3 -5 0 -13 -6 -16 -5 -4 -8 -13 -5 -21 4 -10 -7 -13 -47 -11
-47 2 -52 0 -55 -20 -2 -12 8 -40 23 -62 14 -23 22 -41 19 -41 -4 0 -31 11
-59 25 -53 25 -100 39 -191 57 -47 9 -56 7 -105 -17 -44 -23 -60 -26 -98 -20
-112 16 -124 17 -147 4 -21 -11 -28 -10 -53 9 l-28 21 -115 -58 c-63 -31 -121
-55 -129 -53 -35 12 -89 65 -89 88 0 40 50 114 78 114 27 0 123 73 154 117 31
45 68 169 68 225 0 57 -90 291 -110 285 -8 -3 -99 67 -104 81 -4 8 -1 10 5 6
6 -4 14 -1 18 5 5 8 20 1 46 -21 64 -55 125 -116 125 -126 0 -5 11 -29 24 -53
13 -24 27 -62 31 -84 10 -63 25 -78 25 -27 0 54 -52 182 -93 229 -25 29 -29
38 -19 51 7 10 19 31 28 48 9 17 29 39 45 48 29 17 31 21 33 65 1 13 7 26 14
29 9 3 11 -3 7 -20 -3 -12 -1 -30 5 -38 9 -13 11 -13 20 0 5 8 11 20 13 25 3
6 8 6 13 2 5 -4 2 -12 -6 -17 -13 -8 -13 -10 -1 -10 21 0 71 -51 71 -71 0 -10
4 -20 9 -23 5 -3 12 -25 15 -49 7 -45 43 -114 54 -103 3 4 0 11 -7 16 -10 5
-12 18 -7 41 4 24 3 30 -4 19 -8 -12 -10 -11 -10 5 0 12 -5 26 -12 33 -6 6
-11 32 -11 57 0 37 -3 45 -15 40 -9 -3 -19 0 -24 7 -13 21 -9 31 7 18 21 -17
29 -7 15 19 -17 32 -26 176 -10 166 8 -5 10 -19 6 -39 -4 -21 -3 -26 3 -16 8
12 13 12 30 -4 12 -11 21 -30 21 -43 0 -12 4 -23 9 -23 11 0 -4 62 -25 101 -7
15 -10 29 -7 32 3 4 1 13 -6 21 -6 8 -11 18 -10 22 1 5 -1 17 -6 27 -13 32 6
33 31 2 33 -40 67 -109 83 -167 12 -42 31 -66 31 -38 0 20 21 10 32 -15 10
-22 16 -25 41 -19 20 4 27 3 23 -5 -11 -17 3 -13 41 10 l35 22 -31 26 c-17 15
-31 34 -31 43 0 9 -10 25 -22 35 -39 32 -65 91 -35 80 8 -3 14 1 14 9 0 8 -6
14 -14 14 -7 0 -13 11 -13 25 0 16 -6 25 -15 25 -8 0 -15 6 -16 13 0 6 -2 23
-5 36 -4 20 -1 23 20 19 19 -4 22 -1 18 14 -2 10 -8 21 -13 24 -16 10 -9 43
13 58 18 13 19 18 8 31 -11 13 -10 19 5 35 9 10 14 24 10 29 -3 6 -1 11 5 11
7 0 10 6 8 13 -3 6 -11 12 -19 12 -8 0 -20 6 -28 13 -12 11 -15 11 -23 0 -6
-9 -8 -8 -6 7 4 29 -37 33 -54 6 -7 -12 -19 -21 -27 -21 -11 0 -10 -5 4 -20
10 -11 13 -20 7 -20 -7 0 -12 4 -12 9 0 5 -9 13 -20 16 -11 3 -25 15 -31 26
-9 18 -8 19 8 11 24 -13 50 6 65 48 10 31 9 35 -17 56 -29 23 -67 34 -116 34
-16 0 -29 4 -29 10 0 5 10 10 23 9 85 -1 116 3 110 17 -4 11 5 14 41 14 26 0
62 7 81 14 19 8 35 13 35 11 0 -2 12 2 26 10 15 7 33 11 40 8 18 -7 18 32 -1
72 -11 25 -21 21 -16 -7 0 -5 -5 -8 -13 -8 -10 0 -12 8 -7 33 4 17 10 31 15
29 4 -2 16 6 25 17 10 12 25 21 34 21 15 0 33 17 25 25 -2 2 -30 -6 -63 -17
-133 -45 -280 -68 -419 -67 -129 2 -130 2 -51 10 125 12 161 22 157 43 -3 15
1 17 22 12 16 -4 26 -2 26 4 0 6 -4 9 -9 5 -5 -3 -13 0 -16 6 -4 6 9 26 29 45
34 33 48 52 26 39 -6 -4 -17 -1 -26 5 -11 10 -12 16 -3 26 8 10 8 18 1 27 -6
6 -10 15 -10 20 0 7 -14 86 -17 97 -5 17 -20 47 -29 59 -11 14 -13 21 -22 69
-4 23 -14 36 -30 42 -13 5 -24 16 -24 25 0 17 16 20 25 5 11 -18 27 -11 22 10
-4 17 -2 18 15 9 11 -6 17 -17 14 -25 -3 -7 3 -18 13 -23 11 -6 25 -36 36 -78
10 -37 22 -73 27 -80 6 -7 5 -19 -1 -32 -9 -16 -7 -28 8 -56 19 -35 33 -29 27
11 -2 11 2 22 8 27 8 5 7 10 -3 16 -8 5 -14 22 -15 39 0 17 -4 28 -8 25 -5 -2
-8 1 -8 7 0 8 9 10 24 6 14 -3 28 -2 31 4 3 6 -4 10 -18 10 -33 0 -70 45 -63
76 5 17 2 24 -8 24 -8 0 -18 5 -22 12 -5 7 -3 8 6 3 10 -6 12 -4 7 9 -4 10 -7
24 -7 31 0 8 -10 17 -21 20 -12 4 -18 10 -13 14 13 9 17 51 5 51 -5 0 -16 6
-23 14 -22 22 -58 30 -58 13 0 -8 -7 -20 -15 -27 -8 -7 -15 -22 -15 -33 0 -11
-3 -17 -6 -14 -4 3 -16 0 -28 -8 -27 -20 -43 -19 -62 3 -10 13 -24 17 -41 14
-18 -3 -21 -7 -11 -13 10 -7 10 -9 -2 -9 -13 0 -13 -1 0 -10 13 -8 13 -11 1
-22 -10 -10 -12 -10 -7 0 5 7 1 12 -10 12 -15 0 -15 -2 1 -26 9 -15 12 -23 6
-20 -6 4 -11 1 -12 -6 0 -7 -2 -21 -4 -31 -2 -9 1 -15 6 -11 5 3 9 1 9 -5 0
-6 9 -15 20 -21 17 -9 19 -8 13 7 -5 15 -3 16 8 6 18 -18 30 -16 23 2 -5 11 0
14 19 13 26 -2 44 -34 23 -41 -8 -3 -7 -9 4 -21 8 -10 15 -23 16 -30 1 -6 5
-19 9 -28 4 -11 3 -18 -5 -18 -6 0 -9 4 -6 8 3 5 -8 9 -24 9 -27 0 -30 -3 -27
-33 2 -28 4 -31 17 -20 18 15 38 15 48 0 4 -6 16 -16 27 -23 14 -9 15 -11 3
-7 -10 3 -20 1 -23 -4 -4 -6 -2 -10 3 -10 6 0 9 -13 8 -30 -1 -16 2 -31 7 -33
14 -4 -2 -47 -18 -47 -7 0 -16 -7 -19 -16 -8 -21 -38 -14 -42 10 -3 24 -13 32
-47 40 -19 4 -26 3 -22 -4 3 -5 -3 -10 -14 -10 -11 0 -23 5 -26 10 -3 6 1 10
11 10 12 0 14 3 6 13 -5 6 -6 21 -2 32 7 21 -13 50 -29 41 -5 -4 -12 0 -14 6
-4 10 -6 10 -6 1 -1 -7 -6 -13 -12 -13 -13 0 -40 -26 -39 -37 1 -4 -3 -9 -9
-11 -6 -2 -11 1 -11 7 0 6 -5 11 -11 11 -6 0 -9 -7 -5 -15 4 -12 2 -13 -14 -3
-28 18 -48 -3 -25 -26 9 -9 13 -16 9 -16 -4 0 1 -7 12 -15 10 -8 13 -15 7 -15
-13 0 -113 99 -113 112 0 3 -20 30 -45 59 -25 29 -45 61 -45 71 0 10 -4 18 -9
18 -5 0 -12 11 -15 25 -4 15 -11 23 -18 19 -12 -8 -6 -93 11 -146 5 -18 15
-53 22 -78 16 -58 53 -139 98 -215 20 -33 44 -78 54 -100 l17 -40 -50 55 c-28
30 -65 74 -82 97 -25 34 -34 40 -48 33 -19 -10 -66 -62 -72 -80 -2 -8 -12 -7
-31 3 -16 8 -24 18 -19 21 12 7 22 55 15 73 -3 7 -10 10 -15 7 -6 -4 -8 1 -4
13 6 20 2 20 -69 11 -15 -2 -20 3 -21 22 -5 127 -18 212 -34 223 -33 24 -42
95 -23 187 8 36 17 79 20 95 3 17 9 35 13 40 4 6 11 34 15 63 4 28 10 52 13
52 8 0 27 53 43 115 6 22 20 59 31 83 23 45 50 57 45 20 -2 -12 0 -42 5 -67 5
-25 10 -64 12 -86 2 -32 7 -41 24 -43 13 -2 22 -11 22 -20 0 -12 -3 -13 -8 -5
-6 9 -11 7 -20 -7 -10 -16 -9 -18 9 -17 17 1 32 27 34 59 0 3 4 10 9 15 5 4 6
-4 2 -20 -4 -18 -1 -35 8 -48 10 -14 12 -29 6 -49 -5 -16 -6 -30 -4 -32 2 -2
8 -38 14 -79 16 -112 37 -184 66 -229 22 -33 32 -40 53 -38 43 5 51 48 44 248
-7 200 8 317 59 474 28 86 115 273 142 306 7 8 20 41 29 73 15 55 15 57 -3 57
-14 0 -18 7 -18 30 1 17 5 30 10 30 4 0 8 7 8 16 0 9 8 28 19 42 10 15 21 39
25 54 3 15 13 33 21 42 11 10 12 17 4 22 -8 5 -6 10 6 16 15 9 15 11 -4 29
-22 21 -26 31 -13 43 9 10 10 30 0 36 -14 10 64 54 92 52 22 -2 40 9 79 48 28
28 51 54 51 59 0 4 20 21 44 36 24 15 50 38 57 51 7 13 15 24 19 24 4 0 26 19
50 41 24 23 64 51 89 62 25 11 48 23 51 27 3 3 28 17 55 29 84 38 130 64 138
78 4 7 19 13 32 13 16 0 25 6 25 16 0 8 4 13 9 10 4 -3 19 3 31 14 13 11 29
21 37 21 15 2 31 5 38 9 3 1 10 3 15 4 15 2 30 28 30 54 0 15 6 22 20 22 11 0
20 5 20 11 0 5 4 8 9 4 5 -3 12 -1 16 5 7 11 78 3 108 -12 11 -5 24 -5 35 1
14 9 13 10 -10 11 -16 0 -28 4 -28 9 0 17 32 42 47 36 10 -3 13 -1 10 9 -7 18
18 28 52 21 13 -2 30 2 39 11 11 12 17 13 22 3 6 -8 16 -4 36 14 20 19 31 23
40 16 9 -7 16 -4 26 10 9 13 28 21 52 23 20 1 40 6 42 10 3 4 -949 8 -2115 8
l-2121 0 0 -5120z m2530 4576 c23 -33 101 -82 112 -70 3 2 18 0 36 -5 23 -7
34 -6 43 5 10 12 14 12 21 2 6 -10 10 -7 14 10 6 22 8 22 25 6 25 -22 24 -37
-1 -29 -19 6 -30 -10 -12 -17 5 -1 7 -19 5 -39 -4 -29 -12 -40 -46 -60 -31
-19 -49 -24 -69 -18 -30 8 -38 3 -38 -23 0 -10 -5 -18 -10 -18 -6 0 -14 -8
-17 -17 -4 -9 -14 -24 -24 -34 -17 -17 -18 -16 -24 11 -4 16 -4 38 -1 48 4 11
-2 28 -14 42 -11 13 -20 31 -20 40 0 10 -9 29 -20 43 -11 14 -20 32 -20 40 0
9 -4 19 -10 22 -13 8 -13 45 0 45 7 0 8 13 4 35 -6 34 -5 35 17 27 13 -5 35
-26 49 -46z m2953 27 c-7 -2 -21 -2 -30 0 -10 3 -4 5 12 5 17 0 24 -2 18 -5z
m-2946 -365 c-3 -7 -5 -2 -5 12 0 14 2 19 5 13 2 -7 2 -19 0 -25z m3743 -205
c0 -5 -5 -15 -10 -23 -7 -12 -9 -10 -7 8 1 19 17 33 17 15z m-5 -163 c3 -5 1
-10 -4 -10 -6 0 -11 5 -11 10 0 6 2 10 4 10 3 0 8 -4 11 -10z m-65 -495 c-6
-8 -8 -20 -4 -27 5 -10 4 -10 -6 -1 -11 10 -11 15 0 28 7 8 15 15 17 15 3 0 0
-7 -7 -15z m5 -55 c3 -5 1 -10 -4 -10 -6 0 -11 5 -11 10 0 6 2 10 4 10 3 0 8
-4 11 -10z m-169 -271 c8 -14 -16 -31 -34 -24 -7 3 -10 0 -7 -5 3 -6 2 -10 -3
-10 -6 0 -12 7 -16 15 -3 10 1 15 12 15 15 0 15 2 2 10 -12 8 -9 10 12 10 15
0 30 -5 34 -11z m1960 -30 c-2 -23 -9 -46 -15 -52 -6 -6 -11 -21 -11 -34 0
-13 -4 -23 -10 -23 -5 0 -9 -3 -8 -7 1 -9 -17 -60 -32 -85 -6 -10 -10 -27 -10
-38 0 -11 -4 -20 -10 -20 -5 0 -10 -6 -10 -14 0 -7 -6 -19 -14 -25 -8 -7 -18
-26 -21 -42 -4 -16 -15 -34 -26 -39 -10 -6 -19 -16 -20 -23 0 -7 -20 -28 -43
-47 -43 -35 -58 -60 -92 -158 -11 -30 -24 -50 -30 -48 -7 3 -14 -4 -17 -15 -6
-21 8 -27 16 -6 4 9 6 9 6 -1 1 -7 -6 -15 -14 -18 -11 -5 -13 -10 -5 -19 8 -9
8 -15 0 -20 -5 -3 -10 -17 -10 -31 0 -14 -4 -23 -9 -20 -5 3 -11 -1 -15 -9 -3
-8 -1 -17 4 -20 6 -4 10 -18 10 -33 0 -20 -3 -23 -9 -12 -6 8 -7 18 -5 22 3 4
-6 13 -20 19 -21 10 -24 16 -19 43 3 17 14 48 25 69 11 21 21 50 23 65 8 59
73 188 119 237 26 28 59 75 72 105 14 30 34 64 43 75 27 30 83 127 77 132 -3
3 4 14 14 25 10 12 22 34 25 49 4 16 10 27 15 24 4 -3 10 4 13 15 9 36 18 21
13 -21z m-5299 -41 c-3 -8 -6 -5 -6 6 -1 11 2 17 5 13 3 -3 4 -12 1 -19z
m3330 -23 c0 -8 -4 -12 -9 -9 -4 3 -8 9 -8 15 0 5 4 9 8 9 5 0 9 -7 9 -15z
m-3247 -40 c0 -8 -4 -15 -10 -15 -5 0 -7 7 -4 15 4 8 8 15 10 15 2 0 4 -7 4
-15z m3084 -151 c9 -3 16 -10 16 -15 0 -14 -26 -10 -40 6 -13 16 -3 20 24 9z
m-63 -112 c-7 -2 -18 1 -23 6 -8 8 -4 9 13 5 13 -4 18 -8 10 -11z m-2920 -4
c35 -30 42 -47 25 -63 -14 -15 -17 -13 -36 17 -21 34 -26 58 -12 58 5 0 15 -6
23 -12z m4809 -8 c0 -5 -5 -10 -11 -10 -5 0 -7 5 -4 10 3 6 8 10 11 10 2 0 4
-4 4 -10z m-1880 -10 c0 -5 -4 -10 -10 -10 -5 0 -10 5 -10 10 0 6 5 10 10 10
6 0 10 -4 10 -10z m-3190 -34 c0 -2 -7 -7 -16 -10 -8 -3 -12 -2 -9 4 6 10 25
14 25 6z m286 -62 c-14 -15 -29 -24 -32 -21 -4 3 6 17 21 32 37 33 46 23 11
-11z m4329 -54 c3 -5 2 -10 -4 -10 -5 0 -13 5 -16 10 -3 6 -2 10 4 10 5 0 13
-4 16 -10z m-1815 -60 c0 -5 -5 -10 -11 -10 -5 0 -7 5 -4 10 3 6 8 10 11 10 2
0 4 -4 4 -10z m144 -20 c-10 -4 -23 -5 -28 -2 -13 7 16 21 32 14 13 -4 12 -7
-4 -12z m2343 -52 c-3 -8 -6 -5 -6 6 -1 11 2 17 5 13 3 -3 4 -12 1 -19z m-877
2 c0 -5 -5 -10 -11 -10 -5 0 -7 5 -4 10 3 6 8 10 11 10 2 0 4 -4 4 -10z m863
-35 c-3 -9 -8 -14 -10 -11 -3 3 -2 9 2 15 9 16 15 13 8 -4z m-4953 -15 c0 -5
-4 -10 -10 -10 -5 0 -10 5 -10 10 0 6 5 10 10 10 6 0 10 -4 10 -10z m4038 -35
c-6 -14 -13 -23 -15 -21 -5 5 15 46 22 46 3 0 -1 -11 -7 -25z m-1708 -9 c0 -3
-7 -12 -16 -20 -17 -18 -49 -22 -39 -6 4 6 11 8 16 5 5 -4 9 1 9 9 0 9 7 16
15 16 8 0 15 -2 15 -4z m2594 -23 c-4 -10 -15 -37 -25 -60 -10 -24 -19 -48
-19 -55 0 -7 -7 -22 -15 -32 -8 -11 -15 -27 -15 -37 0 -9 -7 -23 -16 -30 -15
-12 -16 -11 -9 11 4 14 11 29 16 35 5 5 9 16 9 25 0 8 7 28 15 44 8 15 15 35
15 43 0 18 31 73 42 73 4 0 5 -8 2 -17z m-534 -7 c0 -8 -5 -18 -11 -21 -6 -4
-8 -14 -4 -24 5 -12 3 -13 -6 -4 -7 7 -9 22 -5 37 7 28 26 36 26 12z m194 -1
c-4 -8 -8 -15 -10 -15 -2 0 -4 7 -4 15 0 8 4 15 10 15 5 0 7 -7 4 -15z m-27
-50 c-4 -8 -11 -15 -17 -15 -6 0 -6 7 2 20 14 22 24 19 15 -5z m63 10 c0 -18
-42 -109 -52 -113 -5 -2 -8 -10 -8 -18 0 -9 -4 -12 -10 -9 -5 3 -10 -3 -10
-14 0 -35 -94 -179 -172 -263 -38 -41 -36 -22 2 22 30 35 36 70 13 77 -7 3
-13 -8 -15 -24 -3 -26 -38 -48 -38 -24 0 6 7 8 15 5 17 -7 20 7 5 22 -15 15
13 65 47 85 15 8 28 24 28 34 0 20 30 43 42 31 4 -4 -1 -14 -11 -22 -14 -10
-16 -14 -5 -14 12 0 12 -2 -1 -10 -13 -9 -13 -11 0 -19 17 -11 31 5 23 26 -3
8 2 13 13 13 16 0 17 2 4 10 -11 7 -11 10 -2 10 7 0 11 4 8 9 -4 5 -2 11 2 13
5 1 30 45 56 96 45 87 66 111 66 77z m-637 -10 c-3 -9 -8 -14 -10 -11 -3 3 -2
9 2 15 9 16 15 13 8 -4z m1247 -1 c0 -8 -5 -12 -10 -9 -6 4 -8 11 -5 16 9 14
15 11 15 -7z m-869 -47 c-8 -8 -11 -7 -11 4 0 9 3 19 7 23 4 4 9 2 11 -4 3 -7
-1 -17 -7 -23z m288 -24 c-15 -63 -35 -113 -52 -130 -22 -23 -30 -12 -17 23 9
23 13 26 21 14 8 -11 9 -9 4 9 -8 26 12 101 30 113 20 14 23 8 14 -29z m471
33 c0 -3 -4 -8 -10 -11 -5 -3 -10 -1 -10 4 0 6 5 11 10 11 6 0 10 -2 10 -4z
m-638 -90 c3 -15 0 -27 -8 -30 -18 -7 -24 6 -17 32 7 29 20 28 25 -2z m488
-19 c-14 -8 -27 -12 -30 -10 -7 6 23 23 40 23 8 0 4 -6 -10 -13z m-570 -1 c0
-3 -4 -8 -10 -11 -5 -3 -10 -1 -10 4 0 6 5 11 10 11 6 0 10 -2 10 -4z m490
-16 c-12 -7 -12 -12 -3 -21 9 -9 16 -9 28 1 22 18 25 10 10 -27 -8 -18 -21
-33 -29 -33 -9 0 -18 -11 -22 -25 -3 -14 -10 -22 -15 -19 -5 3 -13 -6 -19 -20
-5 -14 -14 -26 -20 -26 -5 0 -10 -7 -10 -15 0 -8 -3 -15 -7 -16 -5 0 -20 -2
-35 -4 -16 -2 -28 1 -28 6 0 6 5 7 10 4 6 -3 10 1 10 9 0 9 5 16 10 16 6 0 10
8 10 18 0 9 7 26 15 36 8 11 13 28 9 38 -8 25 8 23 25 -4 l13 -21 18 23 c24
32 14 47 -10 18 -12 -14 -20 -18 -21 -10 -5 31 -3 37 11 37 8 0 16 10 18 22 2
12 11 23 20 26 23 5 30 -2 12 -13z m-530 -60 c0 -5 -4 -10 -10 -10 -5 0 -10 5
-10 10 0 6 5 10 10 10 6 0 10 -4 10 -10z m50 0 c0 -5 -7 -10 -16 -10 -8 0 -12
5 -9 10 3 6 10 10 16 10 5 0 9 -4 9 -10z m146 -57 c-12 -23 -21 -33 -24 -24
-2 7 1 17 8 21 7 5 10 15 6 25 -8 23 3 40 17 26 8 -8 6 -22 -7 -48z m-4358 26
c-2 -6 -8 -10 -13 -10 -5 0 -11 4 -13 10 -2 6 4 11 13 11 9 0 15 -5 13 -11z
m4332 -73 c0 -3 -4 -8 -10 -11 -5 -3 -10 -1 -10 4 0 6 5 11 10 11 6 0 10 -2
10 -4z m-213 -78 c-3 -7 -5 -2 -5 12 0 14 2 19 5 13 2 -7 2 -19 0 -25z m533
27 c0 -22 -32 -73 -48 -77 -15 -4 -19 -2 -15 8 3 8 9 14 13 14 4 0 13 14 20
30 11 26 30 42 30 25z m-4857 -35 c3 -11 1 -20 -4 -20 -5 0 -9 4 -9 9 0 5 -3
17 -7 27 -4 11 -3 15 4 11 6 -4 13 -16 16 -27z m141 15 c-6 -16 -24 -21 -24
-7 0 11 11 22 21 22 5 0 6 -7 3 -15z m4600 -39 c-27 -29 -74 -81 -104 -115
-128 -143 -160 -175 -160 -164 0 6 4 13 8 15 4 2 34 36 65 76 32 39 61 72 65
72 5 0 24 21 44 48 55 71 104 122 118 122 7 0 -9 -24 -36 -54z m-424 -2 c0 -8
-5 -12 -10 -9 -6 4 -8 11 -5 16 9 14 15 11 15 -7z m-4116 -20 c21 -20 21 -38
0 -30 -9 3 -24 6 -35 6 -10 0 -19 5 -19 11 0 5 5 7 10 4 6 -3 10 1 10 9 0 20
14 20 34 0z m4083 -6 c-3 -8 -6 -5 -6 6 -1 11 2 17 5 13 3 -3 4 -12 1 -19z
m571 -49 c-10 -34 -18 -45 -35 -46 -28 -3 -28 1 -5 26 33 37 42 50 42 62 0 7
3 10 6 7 3 -3 -1 -25 -8 -49z m382 41 c12 -6 17 -16 13 -26 -5 -13 -8 -13 -24
2 -31 28 -24 43 11 24z m-5240 -10 c0 -5 -7 -10 -15 -10 -8 0 -15 -7 -15 -15
0 -9 -6 -12 -16 -8 -14 5 -16 1 -12 -25 2 -18 2 -30 0 -27 -3 3 -11 0 -19 -6
-16 -14 -16 -11 -2 30 7 18 26 41 43 52 36 22 36 22 36 9z m4797 -12 c-3 -8
-6 -5 -6 6 -1 11 2 17 5 13 3 -3 4 -12 1 -19z m-443 -46 c-8 -17 -19 -34 -24
-37 -5 -3 -17 -21 -25 -39 -9 -18 -24 -42 -33 -52 -10 -11 -29 -38 -42 -61
-13 -24 -28 -43 -32 -43 -5 0 -42 -34 -82 -75 -40 -41 -78 -75 -85 -75 -7 0
-9 5 -6 10 3 6 -1 10 -9 10 -9 0 -16 7 -16 15 0 8 5 15 11 15 12 0 111 91 178
165 25 27 61 65 79 83 17 19 32 38 32 43 0 4 9 13 20 19 11 6 20 16 20 23 0
13 21 39 27 33 2 -1 -4 -17 -13 -34z m-154 8 c0 -10 -39 -57 -81 -97 -15 -13
-80 -76 -145 -139 -65 -62 -120 -111 -123 -109 -2 3 -14 -3 -25 -14 -12 -10
-34 -26 -51 -36 -23 -14 -20 -10 10 16 22 18 60 52 85 75 25 22 61 54 80 70
19 16 82 77 140 136 58 60 106 108 108 108 1 0 2 -4 2 -10z m564 -5 c3 -8 1
-15 -4 -15 -6 0 -10 7 -10 15 0 8 2 15 4 15 2 0 6 -7 10 -15z m295 -62 c-18
-32 -37 -67 -43 -78 -6 -12 -29 -45 -50 -74 -33 -45 -38 -56 -28 -72 16 -25
15 -44 -4 -80 -11 -23 -21 -30 -35 -26 -15 4 -19 1 -17 -10 6 -32 26 -23 67
32 67 89 65 63 -4 -52 -36 -58 -65 -111 -65 -117 0 -6 -5 -4 -10 4 -8 12 -10
12 -10 -5 0 -11 -9 -38 -19 -60 -32 -64 -71 -173 -72 -198 l0 -22 -10 23 c-5
13 -7 28 -4 32 11 18 12 71 1 67 -6 -2 -10 -13 -8 -23 1 -11 -7 -30 -19 -43
-12 -13 -22 -36 -23 -52 -1 -16 -4 -29 -7 -29 -3 0 -5 -16 -4 -36 0 -19 -5
-40 -12 -46 -18 -15 -17 49 2 177 9 55 16 116 17 135 0 19 4 40 8 45 4 6 10
27 14 47 4 21 12 40 18 44 7 5 8 2 3 -6 -5 -9 -4 -11 3 -6 7 4 12 13 12 21 0
23 171 262 211 295 4 3 26 37 49 75 45 74 60 95 67 95 3 0 -10 -26 -28 -57z
m-181 12 c-14 -31 -21 -26 -12 9 3 14 10 23 15 21 4 -3 3 -17 -3 -30z m-4888
-69 c-1 -21 -1 -21 -15 -2 -21 27 -20 53 0 36 8 -7 15 -22 15 -34z m200 19 c0
-8 -4 -15 -10 -15 -5 0 -10 7 -10 15 0 8 5 15 10 15 6 0 10 -7 10 -15z m-724
-72 c-4 -4 -11 -1 -16 7 -16 25 -11 35 7 17 9 -9 13 -20 9 -24z m524 18 c0 -6
-4 -13 -10 -16 -5 -3 -10 1 -10 9 0 9 5 16 10 16 6 0 10 -4 10 -9z m-420 -88
c20 -18 26 -33 13 -33 -9 1 -47 50 -39 50 3 0 15 -8 26 -17z m4406 -148 c-9
-14 -22 -23 -28 -19 -7 4 -8 3 -4 -4 4 -7 1 -12 -9 -12 -9 0 -13 -4 -10 -10 3
-5 1 -10 -4 -10 -6 0 -12 -8 -12 -17 -1 -17 -2 -17 -6 0 -2 9 -8 15 -13 12 -5
-3 -11 -1 -14 4 -3 5 5 16 19 25 14 9 25 14 25 12 0 -2 14 9 30 26 35 35 51
31 26 -7z m34 -14 c0 -5 -7 -12 -16 -15 -14 -5 -15 -4 -4 9 14 17 20 19 20 6z
m-210 -5 c0 -2 -8 -10 -17 -17 -16 -13 -17 -12 -4 4 13 16 21 21 21 13z m-77
-31 c-10 -13 -22 -25 -27 -25 -5 0 1 11 14 25 30 32 36 32 13 0z m247 5 c0 -5
-7 -10 -16 -10 -8 0 -12 5 -9 10 3 6 10 10 16 10 5 0 9 -4 9 -10z m-353 -26
c-3 -3 -12 -4 -19 -1 -8 3 -5 6 6 6 11 1 17 -2 13 -5z m268 -34 c3 -5 18 -10
32 -10 16 0 27 -7 30 -19 3 -12 11 -17 19 -14 8 3 14 -1 14 -8 0 -7 -3 -9 -7
-6 -3 4 -20 -2 -38 -13 -18 -11 -35 -17 -39 -13 -4 4 -12 1 -17 -7 -9 -13 -10
-12 -6 2 3 9 1 19 -6 22 -7 3 -1 5 13 4 30 -3 50 8 50 28 0 9 -11 14 -30 14
-16 0 -30 4 -30 10 0 5 -7 7 -15 4 -8 -4 -15 -10 -15 -15 0 -4 7 -6 15 -3 8 4
15 2 15 -4 0 -14 -19 -19 -46 -14 -23 4 -23 4 4 28 29 25 47 30 57 14z m130 1
c3 -5 1 -12 -5 -16 -5 -3 -10 1 -10 9 0 18 6 21 15 7z m1003 -96 c-3 -3 -9 2
-12 12 -6 14 -5 15 5 6 7 -7 10 -15 7 -18z m-1086 -97 c-19 -30 -28 -37 -30
-25 -2 10 -8 15 -13 12 -20 -13 -7 19 24 55 29 35 33 37 39 19 5 -14 -1 -33
-20 -61z m-442 68 c0 -2 -27 -23 -60 -47 -33 -24 -60 -47 -60 -51 0 -5 -7 -8
-15 -8 -18 0 -20 -16 -2 -24 6 -3 3 -4 -8 -1 -14 3 -40 -15 -93 -65 -40 -39
-80 -70 -88 -70 -11 0 -14 -6 -9 -22 4 -16 3 -19 -3 -10 -9 13 -25 0 -78 -60
-6 -7 -24 -22 -40 -33 -16 -11 -39 -31 -51 -44 -13 -13 -25 -22 -27 -20 -3 2
17 27 43 54 41 44 85 85 221 205 19 18 80 65 135 106 55 41 105 78 110 84 10
9 25 13 25 6z m394 -10 c-6 -16 -34 -30 -34 -18 0 5 5 13 12 20 16 16 29 15
22 -2z m1093 -28 c-3 -8 -6 -5 -6 6 -1 11 2 17 5 13 3 -3 4 -12 1 -19z m-2274
-19 c11 -41 -21 -68 -124 -104 -23 -8 -44 -15 -47 -15 -11 0 143 139 154 140
7 0 14 -10 17 -21z m2236 -113 c-9 -8 -10 -5 -5 14 3 14 6 32 7 40 1 8 4 2 6
-14 3 -16 -1 -34 -8 -40z m-3824 -6 c-3 -5 -13 -10 -21 -10 -8 0 -14 5 -14 10
0 6 9 10 21 10 11 0 17 -4 14 -10z m85 -35 c-14 -17 -45 -21 -35 -5 4 6 10 8
15 5 4 -3 11 5 15 18 4 14 8 17 12 9 3 -7 -1 -19 -7 -27z m150 25 c0 -5 -4
-10 -10 -10 -5 0 -10 5 -10 10 0 6 5 10 10 10 6 0 10 -4 10 -10z m3270 -40
l-7 -45 -2 41 c0 22 2 44 6 47 10 11 11 5 3 -43z m-3366 -5 c-3 -8 1 -21 9
-29 9 -9 12 -25 9 -42 l-5 -28 -23 29 c-15 19 -20 33 -14 39 6 6 10 18 10 28
0 10 4 18 10 18 5 0 7 -7 4 -15z m-31 -14 c-16 -10 -22 -39 -10 -44 7 -2 8 -8
4 -13 -10 -11 -43 10 -39 25 1 7 -5 14 -13 17 -8 4 -15 10 -15 15 0 6 8 5 19
0 14 -8 22 -7 31 4 7 8 17 12 22 9 6 -4 6 -9 1 -13z m78 9 c14 -8 19 -7 19 1
0 7 2 10 5 7 3 -3 3 -13 -1 -22 -8 -22 -48 -17 -52 7 -4 20 2 21 29 7z m3656
-32 c-3 -8 -6 -5 -6 6 -1 11 2 17 5 13 3 -3 4 -12 1 -19z m-3570 -4 c-3 -3
-12 -4 -19 -1 -8 3 -5 6 6 6 11 1 17 -2 13 -5z m-227 -14 c0 -5 -7 -10 -15
-10 -8 0 -15 5 -15 10 0 6 7 10 15 10 8 0 15 -4 15 -10z m3469 -33 c1 -5 -3
-5 -9 -2 -5 3 -10 16 -9 28 0 21 1 21 9 2 5 -11 9 -24 9 -28z m101 -20 c0 -18
-2 -19 -10 -7 -13 20 -13 43 0 35 6 -3 10 -16 10 -28z m210 -26 c0 -33 -5 -53
-17 -62 -15 -13 -16 -11 -10 11 4 14 7 44 7 68 0 26 4 41 10 37 6 -3 10 -28
10 -54z m-5481 -46 c0 -5 -6 -1 -14 9 -8 11 -15 27 -15 35 1 17 29 -26 29 -44z
m2208 -1 c-3 -3 -12 -4 -19 -1 -8 3 -5 6 6 6 11 1 17 -2 13 -5z m-802 -54 c3
-5 1 -10 -4 -10 -6 0 -11 5 -11 10 0 6 2 10 4 10 3 0 8 -4 11 -10z m3770 -20
c3 -5 1 -10 -4 -10 -6 0 -11 5 -11 10 0 6 2 10 4 10 3 0 8 -4 11 -10z m279
-39 c-16 -41 -34 -54 -34 -25 0 15 41 74 48 69 2 -1 -5 -21 -14 -44z m-5414
-93 c0 -6 -6 -8 -14 -5 -10 4 -19 -7 -29 -31 -18 -43 -24 -33 -30 48 -2 30 -7
64 -11 75 -4 11 13 -2 38 -28 25 -27 46 -53 46 -59z m1095 72 c3 -5 -1 -10 -9
-10 -9 0 -16 5 -16 10 0 6 4 10 9 10 6 0 13 -4 16 -10z m78 -37 c-7 -2 -21 -2
-30 0 -10 3 -4 5 12 5 17 0 24 -2 18 -5z m44 -9 c-3 -3 -12 -4 -19 -1 -8 3 -5
6 6 6 11 1 17 -2 13 -5z m4282 -158 c-9 -8 -10 -7 -5 7 3 10 7 24 7 30 1 7 3
4 6 -7 3 -10 -1 -23 -8 -30z m-33 -52 c-10 -14 -20 -23 -23 -21 -6 6 30 57 36
51 2 -2 -4 -15 -13 -30z m-5699 -216 c-3 -7 -5 -2 -5 12 0 14 2 19 5 13 2 -7
2 -19 0 -25z m322 -8 c0 -10 -3 -8 -9 5 -12 27 -12 43 0 25 5 -8 9 -22 9 -30z
m-288 -84 c1 -27 27 -96 28 -74 1 9 9 18 19 20 18 4 43 -35 56 -85 4 -15 11
-25 16 -22 6 3 10 1 10 -5 0 -7 -9 -14 -19 -17 -20 -5 -38 -33 -21 -33 12 0 1
-59 -16 -84 -12 -17 -13 -16 -27 10 -19 36 -44 139 -57 224 -5 36 -12 79 -15
95 -6 29 -6 29 9 11 9 -11 16 -29 17 -40z m2952 -61 c-3 -9 -8 -14 -10 -11 -3
3 -2 9 2 15 9 16 15 13 8 -4z m-2663 -49 c-7 -7 -10 1 -9 25 0 32 1 33 10 10
6 -16 6 -28 -1 -35z m2635 -22 c-8 -16 -15 -24 -15 -18 0 15 25 65 28 55 1 -4
-4 -21 -13 -37z m-39 9 c-4 -9 -9 -32 -12 -51 -3 -20 -10 -46 -15 -59 -5 -14
-9 -34 -9 -46 0 -20 0 -20 14 -1 14 18 15 18 19 -6 3 -14 12 -54 20 -90 l16
-65 -1 58 c-1 60 10 84 36 74 34 -13 49 -55 48 -139 -2 -89 4 -108 23 -82 11
15 14 11 25 -37 20 -88 33 -123 57 -148 13 -13 26 -36 30 -50 3 -14 9 -30 13
-36 4 -5 9 -22 12 -37 9 -47 -16 -21 -37 39 -11 31 -26 59 -33 61 -10 3 -11 0
-4 -14 6 -11 18 -39 27 -63 9 -25 26 -58 37 -73 11 -16 18 -31 16 -33 -2 -2
-32 9 -66 26 -48 22 -71 28 -96 23 -30 -5 -34 -3 -40 21 -8 32 -47 95 -71 115
-15 13 -20 11 -44 -17 -14 -17 -35 -46 -46 -64 -23 -37 -69 -57 -132 -58 -52
-1 -81 -29 -108 -104 -10 -29 -24 -61 -32 -72 -13 -19 -13 -19 -13 3 0 13 5
33 11 44 6 11 12 32 14 46 1 15 8 28 14 30 6 2 8 8 5 13 -7 11 -44 -33 -44
-53 0 -7 -7 -31 -15 -53 -8 -22 -14 -55 -15 -74 0 -18 -18 -71 -40 -118 -22
-47 -40 -94 -40 -104 0 -13 -6 -18 -22 -16 -31 3 -50 -64 -38 -136 9 -58 -21
-240 -37 -224 -2 3 2 43 10 89 9 50 12 103 8 133 l-6 50 -19 -60 c-10 -33 -22
-64 -27 -70 -5 -5 -9 -15 -9 -23 0 -12 3 -12 15 -2 31 26 22 -28 -44 -255 -17
-57 -21 -103 -22 -247 -1 -98 -5 -178 -9 -178 -11 0 -20 38 -20 83 0 20 -5 37
-10 37 -17 0 -10 -315 8 -375 8 -27 18 -54 22 -58 10 -12 21 40 19 84 -3 35 6
59 20 59 4 0 23 -23 42 -52 51 -77 48 -74 57 -60 6 9 21 2 55 -29 83 -73 72
-36 -17 56 -47 50 -86 94 -86 98 0 4 37 -30 83 -75 84 -86 85 -87 150 -263
l15 -40 -4 65 c-3 44 -1 58 5 45 8 -18 9 -17 17 10 14 52 10 103 -12 132 -11
15 -50 48 -86 73 -90 61 -106 77 -135 133 -57 114 -89 306 -65 402 9 36 10 32
11 -47 1 -103 23 -217 53 -276 12 -23 41 -60 64 -82 68 -63 114 -82 256 -105
48 -8 60 -30 69 -125 3 -41 11 -76 18 -78 6 -2 11 -18 11 -36 0 -20 8 -40 20
-51 11 -10 22 -27 26 -39 4 -11 18 -43 31 -71 47 -96 75 -338 53 -457 -14 -76
-28 -117 -31 -88 -1 8 -1 22 0 32 1 9 -3 19 -9 23 -6 3 -10 -3 -10 -14 0 -25
-37 -29 -46 -6 -4 8 -10 12 -16 9 -5 -3 -20 4 -33 16 -13 12 -28 19 -34 16 -5
-4 -12 -2 -16 4 -10 16 -47 12 -84 -11 -24 -14 -37 -17 -44 -10 -17 17 -37 13
-37 -6 0 -13 -3 -14 -12 -5 -9 9 -9 15 0 24 19 19 14 33 -6 15 -14 -13 -21
-14 -30 -5 -20 20 -23 3 -7 -42 20 -58 19 -71 -4 -35 -39 63 -131 119 -186
112 -18 -2 -20 5 -23 78 -2 44 -7 84 -12 89 -6 6 -10 34 -10 63 0 39 -4 53
-14 53 -10 0 -17 -16 -21 -48 -3 -26 -10 -69 -15 -95 -6 -27 -11 -63 -11 -80
l-2 -32 -6 35 -7 35 -7 -37 c-6 -27 -3 -46 8 -67 8 -17 14 -43 14 -58 -1 -17
-3 -21 -6 -10 -2 9 -8 17 -13 17 -5 0 -14 16 -20 35 -10 30 -15 34 -36 29 -21
-5 -25 -2 -30 25 -4 16 -9 29 -13 28 -3 -1 -16 8 -29 21 -20 20 -22 31 -22
115 3 265 -3 470 -11 422 -11 -63 -28 -258 -38 -435 -10 -153 -8 -143 -20
-136 -4 3 -9 43 -9 88 -1 48 -10 121 -23 173 -12 50 -24 113 -27 140 -6 50 -6
50 -13 15 -4 -24 -7 -4 -8 61 0 55 3 99 10 106 5 5 10 49 10 96 1 70 4 91 20
111 10 13 19 32 19 43 1 20 23 53 36 53 5 0 8 -20 6 -45 -2 -25 -8 -45 -13
-45 -5 0 -9 -4 -9 -9 0 -5 8 -8 17 -7 11 2 20 16 25 40 4 20 12 45 18 56 7 14
6 20 -8 26 -9 4 -23 6 -31 5 -7 -1 -10 2 -6 8 8 14 35 14 35 1 0 -5 4 -10 9
-10 5 0 11 19 15 42 4 26 10 38 15 30 6 -9 12 -8 24 6 14 15 17 36 15 98 -2
97 11 194 29 213 19 18 25 9 15 -20 -13 -36 -15 -249 -2 -249 6 0 10 30 10 72
0 78 9 112 52 202 15 33 28 68 28 78 0 18 32 146 46 181 6 15 3 17 -21 11 -26
-7 -27 -6 -20 27 3 19 11 46 16 60 6 14 9 30 8 35 -4 24 2 43 17 46 8 2 28 32
44 68 31 73 48 146 31 135 -6 -3 -11 -16 -11 -29 0 -12 -5 -27 -10 -32 -6 -6
-19 -34 -29 -64 -11 -30 -24 -56 -30 -58 -15 -5 -14 35 2 80 11 31 16 35 26
25 11 -10 13 -6 8 20 -6 33 15 120 38 157 7 12 15 54 18 94 3 41 11 80 18 88
6 7 8 22 4 31 -7 17 -8 16 -15 -2 -5 -11 -9 -35 -9 -52 -1 -18 -5 -33 -11 -33
-5 0 -10 -7 -10 -15 0 -8 -13 -36 -30 -63 -16 -26 -25 -48 -20 -50 9 -3 -7
-49 -23 -67 -6 -6 -7 3 -3 25 6 31 5 32 -7 15 -9 -12 -12 -34 -9 -64 l5 -46
-25 23 -26 23 -18 -24 c-11 -14 -27 -39 -37 -57 -12 -22 -22 -30 -33 -26 -9 3
-33 9 -55 12 -21 4 -39 10 -39 14 0 17 -34 20 -51 4 -22 -20 -109 -32 -109
-15 0 6 6 11 14 11 8 0 24 9 37 20 l24 19 -47 -3 c-25 -2 -56 -11 -69 -20 -31
-21 -47 -4 -21 22 11 11 28 25 38 31 16 9 14 10 -11 5 -16 -4 -34 -13 -38 -21
-4 -7 -16 -13 -26 -13 -11 0 -22 -8 -25 -17 -5 -13 -9 -14 -19 -4 -12 12 -10
15 33 41 8 4 12 11 9 15 -4 3 -20 -6 -37 -20 -34 -29 -47 -31 -56 -10 -7 19
-58 20 -99 1 -18 -8 -67 -31 -111 -51 -43 -20 -81 -33 -84 -30 -7 6 -13 1 81
59 43 27 76 50 74 52 -2 2 -33 -8 -68 -22 -79 -33 -159 -55 -159 -44 0 15 170
110 197 110 7 0 21 4 31 9 9 5 35 17 57 26 l40 16 -35 -6 c-198 -33 -309 -63
-427 -116 -23 -10 -60 -24 -82 -31 -23 -7 -41 -16 -41 -20 0 -4 -13 -5 -30 -3
-16 2 -30 -1 -30 -6 0 -5 10 -9 22 -9 l22 0 -23 -21 c-21 -20 -23 -20 -42 -4
-11 11 -39 19 -71 21 -34 2 -44 1 -29 -4 36 -11 38 -32 4 -32 -102 0 -240 29
-330 71 -24 10 -48 19 -53 19 -6 0 -32 10 -58 22 -26 12 -51 21 -56 20 -4 -2
-14 5 -21 15 -10 13 -25 18 -59 16 -28 -1 -46 3 -46 9 0 6 -3 8 -6 5 -4 -4
-20 1 -35 10 -22 13 -32 14 -41 5 -8 -8 -5 -23 15 -62 42 -81 15 -62 -43 30
-19 30 -52 76 -75 101 -22 26 -49 63 -59 83 -17 32 -18 39 -5 47 7 5 20 7 28
4 9 -4 11 0 7 10 -8 21 19 19 84 -7 84 -32 107 -29 156 25 69 77 79 107 66
202 -7 44 -12 94 -12 112 0 17 -4 34 -10 38 -5 3 -10 24 -10 45 0 27 -4 38
-12 36 -7 -1 -10 -1 -5 1 4 3 7 41 8 86 l0 82 14 -44 c8 -25 13 -47 11 -50 -2
-3 6 -15 17 -25 20 -19 20 -19 15 1 -3 12 -1 27 4 34 8 11 9 10 5 -3 -3 -9 1
-22 9 -28 8 -7 14 -23 14 -36 0 -25 15 -33 23 -11 7 15 10 -23 8 -88 -1 -27 3
-57 9 -65 8 -12 10 -10 10 12 0 36 10 58 25 58 8 0 15 -26 20 -81 6 -76 16
-91 29 -44 3 11 3 0 1 -25 -4 -32 -2 -39 4 -25 8 19 10 18 20 -10 7 -16 10
-37 8 -47 -3 -10 3 -29 14 -42 10 -13 19 -29 19 -35 0 -6 5 -11 11 -11 16 0
35 -23 44 -50 11 -37 44 -80 61 -80 17 0 17 0 -1 43 -8 20 -15 41 -15 47 0 18
42 -10 47 -31 3 -10 9 -19 14 -19 5 0 9 -7 9 -15 0 -8 5 -15 10 -15 6 0 10 9
10 20 0 21 -31 54 -70 75 -39 20 -107 172 -123 275 -6 34 -5 34 16 -11 12 -25
30 -65 41 -88 26 -61 119 -150 196 -188 240 -119 300 -134 512 -134 81 0 156
4 165 9 10 5 36 13 58 17 35 6 242 103 271 126 17 14 147 59 170 59 12 0 29
11 39 26 9 14 41 37 71 50 43 19 58 32 70 59 8 19 28 45 44 57 17 12 58 63 92
113 33 49 74 104 89 120 16 17 39 62 51 100 13 39 28 70 33 70 6 0 15 -21 22
-47 12 -50 11 -56 -48 -250 -27 -90 -109 -174 -109 -112 0 8 -5 14 -11 14 -5
0 -9 -8 -7 -18 1 -9 -4 -37 -11 -60 -11 -31 -11 -46 -3 -54 10 -10 29 1 105
67 9 8 21 15 26 15 5 0 15 14 23 30 7 17 18 30 24 30 14 0 34 44 34 74 0 28
21 48 38 37 16 -10 27 -78 26 -159 -2 -73 6 -70 31 10 10 32 24 63 31 69 8 6
14 19 15 28 1 9 4 5 9 -9 7 -24 8 -24 16 -5 4 11 18 35 31 54 12 18 25 49 29
70 9 57 35 154 45 173 5 10 9 28 9 41 0 25 57 147 69 147 3 0 15 16 25 35 20
36 33 47 22 18z m-2669 -60 c-3 -10 -5 -4 -5 12 0 17 2 24 5 18 2 -7 2 -21 0
-30z m-157 -244 c7 -13 7 -19 0 -19 -5 0 -10 7 -10 15 0 8 -4 15 -10 15 -5 0
-10 5 -10 11 0 14 18 2 30 -22z m6229 -72 c-77 -73 -111 -99 -118 -91 -3 3 3
10 14 16 11 6 51 42 90 79 38 37 72 66 74 63 3 -3 -24 -33 -60 -67z m-6201 8
c-3 -3 -9 2 -12 12 -6 14 -5 15 5 6 7 -7 10 -15 7 -18z m35 -58 c-7 -11 -23
12 -23 32 0 11 4 9 14 -4 8 -11 12 -24 9 -28z m14 -49 c-3 -8 -6 -5 -6 6 -1
11 2 17 5 13 3 -3 4 -12 1 -19z m5993 -33 c-13 -14 -28 -25 -33 -25 -6 0 0 11
13 25 13 14 28 25 33 25 6 0 0 -11 -13 -25z m-5970 -1 c0 -8 -4 -12 -10 -9 -5
3 -10 10 -10 16 0 5 5 9 10 9 6 0 10 -7 10 -16z m2293 -29 c-7 -21 -13 -19
-13 6 0 11 4 18 10 14 5 -3 7 -12 3 -20z m-2196 -27 c-3 -7 -5 -2 -5 12 0 14
2 19 5 13 2 -7 2 -19 0 -25z m2946 2 c10 -16 15 -30 12 -30 -4 0 3 -13 14 -29
12 -16 21 -34 21 -40 0 -7 7 -14 15 -17 17 -7 21 -34 4 -34 -6 0 -7 -5 -2 -12
7 -12 10 -39 14 -107 0 -13 -5 -27 -13 -32 -7 -5 -8 -9 -3 -9 6 0 11 -19 11
-43 1 -24 13 -65 29 -97 l27 -55 -28 25 c-16 14 -30 28 -32 33 -6 13 -20 7
-24 -10 -2 -10 -5 9 -6 42 -2 60 -27 190 -57 295 -24 83 -29 150 -13 150 8 0
22 -13 31 -30z m2877 25 c0 -5 -77 -55 -85 -55 -16 0 -1 21 20 26 13 3 29 12
36 20 11 14 29 19 29 9z m-6012 -33 c2 -12 8 -22 13 -22 5 0 9 -5 9 -11 0 -7
-10 -9 -26 -5 -23 6 -25 4 -19 -15 6 -19 4 -21 -18 -17 -17 3 -28 0 -31 -9 -9
-23 -8 -23 34 -23 22 0 40 -3 40 -8 0 -16 -32 -52 -46 -52 -15 0 -55 36 -52
48 0 4 -2 15 -6 24 -10 22 36 105 61 111 28 7 38 2 41 -21z m5458 -35 c0 -31
7 -63 17 -78 9 -14 18 -37 19 -52 2 -24 28 -49 28 -28 0 5 12 6 28 2 15 -4 27
-12 26 -17 -1 -30 -18 -84 -25 -84 -5 0 -9 -13 -9 -29 0 -31 -16 -43 -49 -34
-14 3 -21 1 -21 -8 0 -8 -12 -25 -25 -38 -14 -13 -25 -33 -25 -46 0 -13 -7
-26 -16 -29 -19 -7 -37 2 -29 15 4 5 2 9 -4 9 -5 0 -15 -13 -23 -30 -7 -16
-16 -30 -20 -30 -12 0 -10 5 13 44 18 32 35 41 62 37 4 0 7 9 7 20 0 18 -2 19
-15 9 -13 -10 -15 -9 -15 8 0 25 19 39 30 22 5 -8 10 -9 14 -1 4 6 -2 18 -14
28 -11 10 -20 27 -21 38 0 18 -1 17 -10 -4 -8 -20 -12 -22 -22 -11 -7 8 -8 14
-2 16 6 2 10 39 10 82 0 42 5 90 11 105 l11 28 16 -25 c10 -14 17 -34 17 -45
0 -14 5 -18 20 -14 15 4 20 13 18 37 -1 17 -6 40 -11 51 -27 53 -25 100 3 104
3 1 5 -23 6 -52z m-2150 6 c-4 -4 -11 -1 -16 7 -16 25 -11 35 7 17 9 -9 13
-20 9 -24z m2094 -28 c0 -8 -4 -15 -9 -15 -5 0 -11 7 -15 15 -3 9 0 15 9 15 8
0 15 -7 15 -15z m-3716 -30 c-9 -24 -44 -39 -57 -26 -6 6 -20 11 -31 11 -35 0
-3 18 39 23 22 2 43 4 47 5 4 1 5 -5 2 -13z m-159 -42 c-5 -2 -32 -16 -59 -32
l-49 -29 44 -13 c24 -7 87 -13 139 -13 l95 -1 68 43 c38 24 73 42 79 40 9 -3
-47 -41 -142 -98 -31 -18 -235 -21 -271 -3 -22 10 -56 20 -175 52 -23 6 -59
12 -80 12 -86 3 20 17 136 18 87 1 127 6 165 20 28 11 52 17 55 14 3 -3 1 -7
-5 -10z m4190 -103 c3 -5 1 -10 -4 -10 -6 0 -11 5 -11 10 0 6 2 10 4 10 3 0 8
-4 11 -10z m-80 -90 c3 -5 1 -10 -4 -10 -6 0 -11 5 -11 10 0 6 2 10 4 10 3 0
8 -4 11 -10z m-1021 -55 c-4 -8 -11 -15 -16 -15 -6 0 -5 6 2 15 7 8 14 15 16
15 2 0 1 -7 -2 -15z m1006 -36 c0 -5 -4 -9 -10 -9 -5 0 -10 7 -10 16 0 8 5 12
10 9 6 -3 10 -10 10 -16z m-1046 -10 c-10 -11 -28 -25 -39 -31 -13 -7 -10 0
10 20 34 34 58 43 29 11z m-629 -107 c-5 -6 -85 77 -85 88 0 4 20 -13 45 -38
25 -25 43 -47 40 -50z m1555 38 c0 -5 -2 -10 -4 -10 -3 0 -8 5 -11 10 -3 6 -1
10 4 10 6 0 11 -4 11 -10z m-1040 -25 c-7 -8 -17 -12 -22 -9 -6 4 -5 10 3 15
22 14 33 10 19 -6z m-4536 -64 c-5 -6 -44 35 -44 46 0 4 11 -4 24 -17 13 -14
22 -27 20 -29z m5491 17 c6 -4 2 -8 -7 -8 -10 0 -18 7 -18 17 0 9 3 12 8 7 4
-5 12 -12 17 -16z m-95 2 c0 -5 -5 -10 -11 -10 -5 0 -7 5 -4 10 3 6 8 10 11
10 2 0 4 -4 4 -10z m-3780 -80 c0 -5 -7 -7 -15 -4 -8 4 -15 8 -15 10 0 2 7 4
15 4 8 0 15 -4 15 -10z m578 -27 c-4 -22 -22 -20 -26 1 -2 10 3 16 13 16 10 0
15 -7 13 -17z m-528 -3 c0 -5 -4 -10 -10 -10 -5 0 -10 5 -10 10 0 6 5 10 10
10 6 0 10 -4 10 -10z m-2249 -7 c0 -5 2 -16 4 -25 2 -10 -1 -21 -7 -24 -12 -8
-46 28 -40 44 4 13 41 17 43 5z m1886 -43 c-14 -11 -31 -20 -39 -20 -7 0 1 9
17 20 39 26 55 26 22 0z m-1038 -100 c-6 -4 -8 -13 -5 -19 4 -6 2 -11 -3 -11
-6 0 -11 4 -11 9 0 5 -16 26 -35 45 -51 52 -43 62 16 20 33 -24 46 -39 38 -44z
m5241 76 c0 -3 -4 -8 -10 -11 -5 -3 -10 -1 -10 4 0 6 5 11 10 11 6 0 10 -2 10
-4z m150 1 c0 -4 -76 -152 -117 -228 -28 -53 -94 -141 -101 -135 -3 3 3 15 12
25 10 11 15 25 10 32 -4 8 -3 10 4 5 8 -4 12 0 12 12 0 11 9 31 20 45 11 14
20 30 20 36 0 6 5 11 11 11 5 0 8 4 4 9 -6 11 15 61 27 61 4 0 8 7 8 15 0 27
63 115 82 115 4 0 8 -2 8 -3z m33 -59 c-3 -16 -9 -28 -14 -28 -5 0 -6 7 -4 15
3 8 7 22 10 31 8 26 14 12 8 -18z m-185 -88 c-7 -11 -16 -20 -20 -20 -5 0 -3
9 4 20 7 11 16 20 20 20 5 0 3 -9 -4 -20z m-5211 -52 c13 -12 23 -31 23 -42 0
-12 13 -38 30 -58 26 -31 27 -35 9 -31 -25 7 -90 90 -83 108 3 7 1 16 -5 20
-12 7 -15 25 -4 25 4 0 17 -10 30 -22z m5146 -38 c-5 -20 -43 -49 -43 -33 0 6
40 53 46 53 1 0 0 -9 -3 -20z m-5237 -47 c-11 -11 -26 10 -26 35 l1 27 15 -28
c9 -16 13 -31 10 -34z m2111 -40 c-3 -10 -5 -4 -5 12 0 17 2 24 5 18 2 -7 2
-21 0 -30z m3063 12 c-7 -9 -15 -13 -18 -10 -3 2 1 11 8 20 7 9 15 13 18 10 3
-2 -1 -11 -8 -20z m-3268 -99 c4 -17 1 -23 -9 -19 -7 3 -13 16 -13 30 0 30 16
22 22 -11z m-1187 -156 c3 -5 1 -10 -4 -10 -6 0 -11 5 -11 10 0 6 2 10 4 10 3
0 8 -4 11 -10z m1060 -191 c5 -24 3 -34 -8 -40 -10 -6 -13 -17 -9 -31 3 -15 2
-19 -7 -14 -7 5 -10 22 -7 44 3 20 5 45 5 55 1 29 19 19 26 -14z m301 -176
c-7 -7 -26 7 -26 19 0 6 6 6 15 -2 9 -7 13 -15 11 -17z m1074 -53 c0 -5 -5
-10 -11 -10 -5 0 -7 5 -4 10 3 6 8 10 11 10 2 0 4 -4 4 -10z m-594 -146 c-8
-27 -15 -40 -15 -28 -1 24 19 87 26 81 2 -3 -2 -27 -11 -53z m-1039 -6 c-3 -8
-6 -5 -6 6 -1 11 2 17 5 13 3 -3 4 -12 1 -19z m1334 -69 c-25 -76 -29 -159 -6
-159 9 0 15 9 15 25 0 14 4 25 9 25 5 0 11 10 14 22 5 18 8 19 22 8 17 -14 18
-14 45 30 17 28 30 -2 19 -45 -11 -46 -13 -184 -4 -265 l7 -55 -21 33 c-12 18
-21 38 -21 45 0 7 -16 46 -36 87 -42 85 -51 81 -61 -25 -4 -46 -9 -62 -15 -53
-7 9 -8 8 -4 -5 9 -27 -48 -255 -74 -297 -5 -8 -13 -11 -17 -6 -13 12 -16 537
-3 550 7 7 10 7 10 0 0 -6 7 -11 15 -11 11 0 15 12 15 44 0 24 -4 43 -10 43
-5 0 -7 6 -5 13 3 6 1 26 -4 42 -5 17 -10 24 -10 18 -1 -15 -21 -18 -21 -4 0
22 33 19 54 -4 21 -23 22 -29 13 -70 -8 -34 -7 -51 3 -69 9 -17 11 -47 8 -93
l-6 -68 15 40 c19 53 23 127 6 120 -7 -2 -13 3 -13 11 0 20 29 123 42 148 9
16 12 17 25 3 14 -14 13 -22 -6 -78z m-1322 -117 c-1 -87 -6 -79 -11 20 -2 37
0 64 4 62 4 -3 7 -40 7 -82z m1211 58 c0 -5 -4 -10 -10 -10 -5 0 -10 5 -10 10
0 6 5 10 10 10 6 0 10 -4 10 -10z m-1920 -206 c0 -8 4 -14 9 -14 12 0 90 -131
151 -255 30 -60 68 -132 86 -160 48 -77 66 -115 52 -110 -12 5 -57 66 -67 90
-2 6 -14 24 -26 40 -21 27 -115 215 -115 229 0 3 -24 45 -53 94 -63 104 -75
131 -52 112 8 -7 15 -19 15 -26z m2805 -123 c3 -5 1 -12 -5 -16 -5 -3 -10 1
-10 9 0 18 6 21 15 7z m-78 -193 c-3 -8 -6 -5 -6 6 -1 11 2 17 5 13 3 -3 4
-12 1 -19z m-667 -202 c0 -2 -8 -10 -17 -17 -16 -13 -17 -12 -4 4 13 16 21 21
21 13z"/>
<path d="M7366 7041 c-3 -5 1 -11 9 -15 8 -3 15 -1 15 4 0 13 -18 22 -24 11z"/>
<path d="M7350 6996 c0 -9 5 -16 10 -16 6 0 10 4 10 9 0 6 -4 13 -10 16 -5 3
-10 -1 -10 -9z"/>
<path d="M7030 6460 c-6 -11 -8 -20 -6 -20 3 0 10 9 16 20 6 11 8 20 6 20 -3
0 -10 -9 -16 -20z"/>
<path d="M7857 6454 c-3 -3 -3 -13 0 -21 3 -8 0 -19 -7 -23 -7 -4 -10 -14 -7
-21 3 -9 11 1 21 23 9 21 16 40 16 43 0 7 -15 6 -23 -1z"/>
<path d="M7830 6305 c0 -8 2 -15 4 -15 2 0 6 7 10 15 3 8 1 15 -4 15 -6 0 -10
-7 -10 -15z"/>
<path d="M7730 6139 c0 -11 5 -17 10 -14 6 3 10 13 10 21 0 8 -4 14 -10 14 -5
0 -10 -9 -10 -21z"/>
<path d="M7716 6097 c3 -10 9 -15 12 -12 3 3 0 11 -7 18 -10 9 -11 8 -5 -6z"/>
<path d="M4790 4167 c0 -15 3 -18 8 -9 5 8 16 10 27 6 12 -5 16 -4 12 3 -4 6
-16 13 -27 16 -15 4 -20 0 -20 -16z"/>
<path d="M4860 4180 c-8 -5 -11 -12 -7 -16 4 -4 13 -2 19 4 15 15 7 24 -12 12z"/>
<path d="M4634 4169 c-3 -6 -1 -16 5 -22 8 -8 11 -5 11 11 0 24 -5 28 -16 11z"/>
<path d="M4695 4119 c-4 -6 -5 -12 -2 -15 2 -3 7 2 10 11 7 17 1 20 -8 4z"/>
<path d="M4635 4047 c-30 -49 -65 -138 -64 -161 1 -20 1 -20 6 -1 3 11 21 35
39 53 19 18 34 38 34 44 0 6 5 27 12 45 17 48 -2 62 -27 20z"/>
<path d="M4682 4040 c0 -14 2 -19 5 -12 2 6 2 18 0 25 -3 6 -5 1 -5 -13z"/>
<path d="M4142 4020 c-23 -12 -29 -20 -21 -26 7 -4 15 -2 17 4 2 7 9 12 17 12
7 0 18 7 25 15 16 20 3 18 -38 -5z"/>
<path d="M2245 3990 c-3 -5 -1 -10 4 -10 6 0 11 5 11 10 0 6 -2 10 -4 10 -3 0
-8 -4 -11 -10z"/>
<path d="M4078 3983 c-1 -5 -20 -17 -41 -27 -35 -18 -87 -59 -87 -69 0 -3 15
3 33 12 63 34 97 56 97 64 0 4 7 7 16 7 8 0 12 5 9 10 -7 12 -22 13 -27 3z"/>
<path d="M2970 3960 c0 -5 7 -10 15 -10 8 0 15 5 15 10 0 6 -7 10 -15 10 -8 0
-15 -4 -15 -10z"/>
<path d="M3000 3930 c0 -5 5 -10 10 -10 6 0 10 5 10 10 0 6 -4 10 -10 10 -5 0
-10 -4 -10 -10z"/>
<path d="M3030 3920 c0 -5 5 -10 10 -10 6 0 10 5 10 10 0 6 -4 10 -10 10 -5 0
-10 -4 -10 -10z"/>
<path d="M2631 3864 c0 -11 3 -14 6 -6 3 7 2 16 -1 19 -3 4 -6 -2 -5 -13z"/>
<path d="M3100 3869 c0 -5 5 -7 10 -4 6 3 10 8 10 11 0 2 -4 4 -10 4 -5 0 -10
-5 -10 -11z"/>
<path d="M2967 3857 c-3 -8 -1 -20 4 -28 6 -10 9 -7 9 14 0 29 -5 35 -13 14z"/>
<path d="M2348 3833 c7 -3 16 -2 19 1 4 3 -2 6 -13 5 -11 0 -14 -3 -6 -6z"/>
<path d="M4080 3820 c-8 -5 -12 -12 -9 -15 4 -3 12 1 19 10 14 17 11 19 -10 5z"/>
<path d="M2455 3810 c-8 -13 -1 -24 14 -19 6 3 7 10 2 18 -6 10 -10 10 -16 1z"/>
<path d="M4560 3801 c0 -6 4 -13 10 -16 6 -3 7 1 4 9 -7 18 -14 21 -14 7z"/>
<path d="M4015 3787 c-11 -6 -27 -17 -35 -25 -12 -13 -11 -14 10 -7 25 8 55
33 49 40 -2 2 -13 -1 -24 -8z"/>
<path d="M2680 3772 c0 -9 26 -31 58 -49 26 -16 32 -16 32 -3 0 6 -6 10 -13
10 -8 0 -24 11 -37 25 -23 25 -40 32 -40 17z"/>
<path d="M3236 3712 c-4 -7 -11 -10 -16 -7 -5 3 -11 1 -14 -4 -8 -13 25 -24
37 -12 5 5 7 15 5 22 -3 10 -6 10 -12 1z"/>
<path d="M4486 3414 c-9 -24 -2 -26 12 -4 7 11 8 20 3 20 -5 0 -12 -7 -15 -16z"/>
<path d="M4317 2803 c-4 -3 -7 -11 -7 -17 0 -6 5 -5 12 2 6 6 9 14 7 17 -3 3
-9 2 -12 -2z"/>
<path d="M4430 2198 c0 -16 0 -31 -1 -35 0 -4 4 -9 10 -11 14 -5 14 38 1 58
-8 12 -10 9 -10 -12z"/>
<path d="M4510 1780 c0 -5 5 -10 10 -10 6 0 10 5 10 10 0 6 -4 10 -10 10 -5 0
-10 -4 -10 -10z"/>
<path d="M4548 1783 c7 -3 16 -2 19 1 4 3 -2 6 -13 5 -11 0 -14 -3 -6 -6z"/>
<path d="M7685 4191 c-3 -5 -1 -12 5 -16 5 -3 10 1 10 9 0 18 -6 21 -15 7z"/>
<path d="M2520 3350 c0 -5 5 -10 11 -10 5 0 7 5 4 10 -3 6 -8 10 -11 10 -2 0
-4 -4 -4 -10z"/>
<path d="M5202 2240 c0 -14 2 -19 5 -12 2 6 2 18 0 25 -3 6 -5 1 -5 -13z"/>
<path d="M5179 2203 c0 -4 -2 -26 -3 -48 -2 -22 -7 -63 -11 -92 -4 -28 -4 -64
1 -80 7 -25 8 -23 16 27 17 123 21 187 9 194 -6 4 -11 4 -12 -1z"/>
<path d="M5221 1974 c0 -11 3 -14 6 -6 3 7 2 16 -1 19 -3 4 -6 -2 -5 -13z"/>
<path d="M4490 10231 c0 -5 10 -13 23 -17 12 -4 24 -11 27 -15 7 -10 50 18 50
32 0 5 -22 9 -50 9 -27 0 -50 -4 -50 -9z"/>
<path d="M4600 10230 c0 -9 129 -4 139 5 2 3 -28 5 -67 5 -40 0 -72 -4 -72
-10z"/>
<path d="M4242 10200 c0 -14 2 -19 5 -12 2 6 2 18 0 25 -3 6 -5 1 -5 -13z"/>
<path d="M4190 10180 c-8 -5 -6 -9 5 -14 18 -6 35 0 35 13 0 10 -25 10 -40 1z"/>
<path d="M3705 9759 c-9 -14 0 -22 18 -17 13 2 13 5 2 15 -10 9 -16 9 -20 2z"/>
<path d="M3572 9627 c-26 -27 -28 -47 -7 -47 18 0 20 17 3 22 -6 2 3 10 20 17
32 14 43 31 19 31 -8 0 -23 -10 -35 -23z"/>
<path d="M6150 9203 c0 -5 5 -15 10 -23 8 -12 10 -11 10 8 0 12 -4 22 -10 22
-5 0 -10 -3 -10 -7z"/>
<path d="M6096 9171 c-4 -7 -5 -15 -2 -18 9 -9 19 4 14 18 -4 11 -6 11 -12 0z"/>
<path d="M6210 8786 c0 -9 5 -16 10 -16 6 0 10 4 10 9 0 6 -4 13 -10 16 -5 3
-10 -1 -10 -9z"/>
<path d="M5694 8285 c0 -44 4 -66 13 -69 10 -4 11 9 7 57 -9 84 -19 90 -20 12z"/>
<path d="M5740 8279 c0 -17 4 -28 10 -24 6 3 10 17 10 31 0 13 -4 24 -10 24
-5 0 -10 -14 -10 -31z"/>
<path d="M2715 8160 c3 -5 11 -10 16 -10 6 0 7 5 4 10 -3 6 -11 10 -16 10 -6
0 -7 -4 -4 -10z"/>
<path d="M5814 8049 c-4 -7 -3 -9 4 -5 6 3 16 -2 22 -11 10 -17 11 -17 8 1 -4
23 -23 32 -34 15z"/>
<path d="M3020 8000 c0 -5 5 -10 11 -10 5 0 7 5 4 10 -3 6 -8 10 -11 10 -2 0
-4 -4 -4 -10z"/>
<path d="M5780 8001 c0 -5 15 -16 32 -24 25 -12 34 -13 40 -4 5 7 1 13 -10 15
-9 2 -21 8 -26 13 -13 12 -36 12 -36 0z"/>
<path d="M5686 7941 c-3 -5 1 -11 9 -15 9 -3 15 0 15 9 0 16 -16 20 -24 6z"/>
<path d="M2651 7922 c-1 -46 -7 -68 -20 -73 -11 -4 -9 -10 10 -28 22 -20 24
-21 36 -5 17 24 16 51 -2 58 -8 3 -15 13 -14 23 0 16 1 16 8 -1 6 -16 9 -17
13 -4 4 8 -2 22 -12 31 -17 14 -19 14 -19 -1z"/>
<path d="M5611 7774 c-25 -32 -26 -38 -4 -55 15 -12 16 -12 10 5 -6 16 -5 17
8 6 13 -10 15 -9 15 7 0 10 6 25 13 32 10 10 9 11 -6 5 -13 -5 -16 -2 -11 10
9 24 -2 19 -25 -10z"/>
<path d="M5698 7783 c7 -3 16 -2 19 1 4 3 -2 6 -13 5 -11 0 -14 -3 -6 -6z"/>
<path d="M3130 7721 c0 -6 4 -13 10 -16 6 -3 7 1 4 9 -7 18 -14 21 -14 7z"/>
<path d="M3332 7708 c5 -15 28 -18 29 -3 0 6 -7 12 -17 13 -10 3 -15 -1 -12
-10z"/>
<path d="M5481 7684 c0 -11 3 -14 6 -6 3 7 2 16 -1 19 -3 4 -6 -2 -5 -13z"/>
<path d="M2270 7629 c0 -20 16 -43 23 -32 3 4 -1 17 -9 28 -10 13 -14 15 -14
4z"/>
<path d="M5326 7511 c-7 -10 22 -37 30 -28 4 3 -1 13 -9 22 -9 8 -18 11 -21 6z"/>
<path d="M3270 7486 c0 -9 5 -16 10 -16 6 0 10 4 10 9 0 6 -4 13 -10 16 -5 3
-10 -1 -10 -9z"/>
<path d="M5006 7476 c-8 -32 3 -64 15 -44 11 17 11 68 0 68 -5 0 -12 -11 -15
-24z"/>
<path d="M3302 7470 c0 -14 2 -19 5 -12 2 6 2 18 0 25 -3 6 -5 1 -5 -13z"/>
<path d="M5275 7440 c4 -6 11 -8 16 -5 14 9 11 15 -7 15 -8 0 -12 -5 -9 -10z"/>
<path d="M3517 7409 c6 -6 25 -13 44 -16 29 -4 31 -3 20 11 -8 9 -27 16 -44
16 -22 0 -28 -3 -20 -11z"/>
<path d="M4320 7260 c7 -13 4 -25 -11 -44 -25 -32 -35 -32 -60 -3 -16 19 -18
20 -19 4 0 -21 18 -59 34 -69 6 -4 25 -8 43 -8 34 0 73 37 73 69 0 24 -26 58
-50 64 -16 4 -18 2 -10 -13z"/>
<path d="M3217 7120 c-16 -15 -16 -18 -3 -23 10 -4 20 1 26 13 14 25 -1 32
-23 10z"/>
<path d="M3400 6861 c0 -5 5 -13 10 -16 6 -3 10 -2 10 4 0 5 -4 13 -10 16 -5
3 -10 2 -10 -4z"/>
<path d="M4063 6773 c18 -5 24 -23 8 -23 -6 0 -17 -13 -26 -28 -14 -23 -23
-28 -49 -25 -17 2 -25 0 -18 -3 18 -9 15 -21 -8 -27 -11 -3 -20 -1 -20 4 0 5
-5 9 -11 9 -7 0 -20 10 -30 21 -18 21 -19 21 -26 3 -15 -39 -8 -91 20 -133 25
-38 31 -41 72 -41 24 0 47 5 50 10 3 6 14 10 24 10 64 0 128 130 88 180 -19
24 -60 50 -77 49 -11 -1 -11 -2 3 -6z"/>
<path d="M3630 6674 c0 -8 5 -12 10 -9 6 3 10 10 10 16 0 5 -4 9 -10 9 -5 0
-10 -7 -10 -16z"/>
<path d="M3073 6510 c4 -18 7 -43 7 -56 0 -13 5 -24 11 -24 16 0 7 102 -10
108 -11 4 -13 -3 -8 -28z"/>
<path d="M2580 6452 c0 -5 7 -13 16 -16 10 -4 14 -1 12 6 -5 15 -28 23 -28 10z"/>
<path d="M2810 6435 c7 -9 15 -13 17 -11 7 7 -7 26 -19 26 -6 0 -6 -6 2 -15z"/>
<path d="M4850 5984 c0 -8 5 -12 10 -9 6 3 10 10 10 16 0 5 -4 9 -10 9 -5 0
-10 -7 -10 -16z"/>
<path d="M4736 5924 c-4 -9 -4 -19 -1 -22 2 -3 7 3 11 12 4 9 4 19 1 22 -2 3
-7 -3 -11 -12z"/>
<path d="M3670 5900 c0 -5 5 -10 10 -10 6 0 10 5 10 10 0 6 -4 10 -10 10 -5 0
-10 -4 -10 -10z"/>
<path d="M4710 5879 c0 -5 5 -7 10 -4 6 3 10 8 10 11 0 2 -4 4 -10 4 -5 0 -10
-5 -10 -11z"/>
<path d="M3220 5846 c0 -9 67 -46 84 -46 22 0 11 19 -17 29 -42 16 -67 22 -67
17z"/>
<path d="M3496 5744 c-9 -23 -8 -24 13 -24 14 0 18 5 14 20 -6 24 -19 26 -27
4z"/>
<path d="M3362 5728 c-10 -12 -7 -17 14 -26 32 -15 34 -15 34 3 0 8 -6 15 -14
15 -8 0 -16 5 -18 11 -2 7 -8 6 -16 -3z"/>
<path d="M2547 5623 c-13 -13 -7 -21 13 -16 11 3 17 9 14 14 -6 11 -18 12 -27
2z"/>
</g>
</svg>
