<svg xmlns="http://www.w3.org/2000/svg" viewBox="0 0 16 16">
  <g id="icon" fill="currentColor">
    <path d="M8 1a.5.5 0 0 1 .5.5V2h1.2c.7 0 1.3.6 1.3 1.3v.2a.5.5 0 0 1-1 0v-.2a.3.3 0 0 0-.3-.3H8.5V6h1.4c1.2 0 2.1.9 2.1 2.1 0 1.1-.9 2.1-2.1 2.1H8.5v.5a.5.5 0 0 1-1 0v-.5H6.3c-.7 0-1.3-.6-1.3-1.3v-.2a.5.5 0 0 1 1 0v.2c0 .2.1.3.3.3H7.5V6H6.1C4.9 6 4 5.1 4 3.9 4 2.8 4.9 1.8 6.1 1.8H7.5V1.5A.5.5 0 0 1 8 1zm-.5 1.8H6.1c-.6 0-1.1.5-1.1 1.1 0 .6.5 1.1 1.1 1.1h1.4V2.8zm1 4.2H7.5v2.2h2.4c.6 0 1.1-.5 1.1-1.1 0-.6-.5-1.1-1.1-1.1H8.5z"/>
  </g>
</svg>