<svg xmlns="http://www.w3.org/2000/svg" viewBox="0 0 16 16">
  <g id="icon" fill="currentColor">
    <path d="M2.5 2.5A1.5 1.5 0 0 1 4 1h7.5A2.5 2.5 0 0 1 14 3.5V13a2 2 0 0 1-2 2H4A1.5 1.5 0 0 1 2.5 13.5V2.5zM4 2a.5.5 0 0 0-.5.5v11a.5.5 0 0 0 .5.5h8a1 1 0 0 0 1-1V3.5A1.5 1.5 0 0 0 11.5 2H4z"/>
    <path d="M5 4.25c0-.14.11-.25.25-.25h6.5c.14 0 .25.11.25.25v.5c0 .14-.11.25-.25.25h-6.5A.25.25 0 0 1 5 4.75v-.5zm0 2c0-.14.11-.25.25-.25h6.5c.14 0 .25.11.25.25v.5c0 .14-.11.25-.25.25h-6.5A.25.25 0 0 1 5 6.75v-.5z"/>
  </g>
</svg>