<svg xmlns="http://www.w3.org/2000/svg" viewBox="0 0 16 16">
  <g id="icon" fill="currentColor">
    <path d="M6.5 10a.5.5 0 0 1 0-1h3a.5.5 0 0 1 0 1h-3z"/>
    <path d="M4.354 5.354a2.5 2.5 0 0 1 3.536 0l.53.53a.5.5 0 0 1-.707.707l-.53-.53a1.5 1.5 0 0 0-2.122 2.122l.53.53a.5.5 0 1 1-.707.707l-.53-.53a2.5 2.5 0 0 1 0-3.536z"/>
    <path d="M11.646 10.646a2.5 2.5 0 0 1-3.536 0l-.53-.53a.5.5 0 0 1 .707-.707l.53.53a1.5 1.5 0 0 0 2.122-2.122l-.53-.53a.5.5 0 0 1 .707-.707l.53.53a2.5 2.5 0 0 1 0 3.536z"/>
  </g>
</svg>