<svg xmlns="http://www.w3.org/2000/svg" viewBox="0 0 16 16">
  <g id="icon" fill="currentColor">
    <path d="M2 3.5A1.5 1.5 0 0 1 3.5 2h9A1.5 1.5 0 0 1 14 3.5v3A1.5 1.5 0 0 1 12.5 8h-9A1.5 1.5 0 0 1 2 6.5v-3zM3.5 3a.5.5 0 0 0-.5.5v3a.5.5 0 0 0 .5.5h9a.5.5 0 0 0 .5-.5v-3a.5.5 0 0 0-.5-.5h-9z"/>
    <path d="M2 9.5A1.5 1.5 0 0 1 3.5 8h9A1.5 1.5 0 0 1 14 9.5v3A1.5 1.5 0 0 1 12.5 14h-9A1.5 1.5 0 0 1 2 12.5v-3zM3.5 9a.5.5 0 0 0-.5.5v3a.5.5 0 0 0 .5.5h9a.5.5 0 0 0 .5-.5v-3a.5.5 0 0 0-.5-.5h-9z"/>
    <path d="M4 5h2v1H4V5zm0 6h2v1H4v-1z"/>
  </g>
</svg>