<svg xmlns="http://www.w3.org/2000/svg" viewBox="0 0 16 16">
  <g id="icon" fill="currentColor">
    <path d="M5.5 3.5a.5.5 0 0 1 .5-.5h5a2 2 0 0 1 0 4H6a.5.5 0 0 1 0-1h5a1 1 0 0 0 0-2H6a.5.5 0 0 1-.5-.5z"/>
    <path d="M10.5 12.5a.5.5 0 0 1-.5.5H5a2 2 0 0 1 0-4h5a.5.5 0 0 1 0 1H5a1 1 0 0 0 0 2h5a.5.5 0 0 1 .5.5z"/>
    <path d="M4.2 8.8a.5.5 0 0 1 0-.7l2-2a.5.5 0 1 1 .7.7L5.7 8l1.2 1.2a.5.5 0 1 1-.7.7l-2-2z"/>
    <path d="M11.8 7.2a.5.5 0 0 1 0 .7l-2 2a.5.5 0 0 1-.7-.7L10.3 8 9.1 6.8a.5.5 0 1 1 .7-.7l2 2z"/>
  </g>
</svg>